<svg width="123" height="101" viewBox="0 0 123 101" fill="none" xmlns="http://www.w3.org/2000/svg">
<g clip-path="url(#clip0_201_3)">
<path fill-rule="evenodd" clip-rule="evenodd" d="M102.79 7.10998L105.38 10.52C106.06 11.42 105.89 12.71 104.99 13.39L102.24 15.48C102.74 16.81 103.06 18.23 103.19 19.68L106.32 20.11C107.44 20.26 108.22 21.3 108.07 22.42L107.49 26.67C107.34 27.79 106.3 28.58 105.18 28.42L101.76 27.95C101.15 29.28 100.37 30.5 99.45 31.59L101.37 34.11C102.05 35.01 101.87 36.3 100.97 36.98L97.56 39.57C96.66 40.25 95.37 40.07 94.69 39.18L92.6 36.43C91.26 36.93 89.85 37.25 88.39 37.38L87.96 40.51C87.81 41.63 86.77 42.41 85.65 42.26L81.4 41.68C80.28 41.53 79.5 40.49 79.65 39.37L80.12 35.95C78.8 35.34 77.57 34.56 76.48 33.65L73.96 35.56C73.06 36.24 71.77 36.07 71.09 35.17L68.5 31.76C67.82 30.86 67.99 29.57 68.89 28.89L71.64 26.8C71.14 25.46 70.82 24.05 70.69 22.6L67.56 22.17C66.44 22.02 65.65 20.98 65.81 19.86L66.39 15.61C66.55 14.49 67.58 13.71 68.7 13.86L72.12 14.33C72.73 13.01 73.51 11.78 74.42 10.69L72.51 8.16998C71.83 7.27998 72 5.98998 72.9 5.30998L76.31 2.71998C77.21 2.03998 78.5 2.20998 79.18 3.10998L81.27 5.85998C82.6 5.35998 84.02 5.03998 85.47 4.90998L85.9 1.77998C86.05 0.659984 87.09 -0.130016 88.21 0.0199836L92.46 0.599984C93.58 0.749984 94.37 1.78998 94.21 2.90998L93.74 6.32998C95.07 6.93998 96.29 7.71998 97.39 8.63998L99.91 6.72998C100.81 6.03998 102.1 6.20998 102.79 7.10998ZM29.67 67.12V50.62H38.17C39.75 50.62 40.95 50.75 41.78 51.03C42.61 51.3 43.29 51.8 43.79 52.53C44.3 53.27 44.56 54.16 44.56 55.21C44.56 56.12 44.36 56.92 43.97 57.58C43.58 58.25 43.04 58.79 42.36 59.2C41.93 59.46 41.33 59.68 40.57 59.85C41.18 60.06 41.62 60.25 41.89 60.46C42.08 60.6 42.35 60.89 42.7 61.33C43.05 61.77 43.29 62.12 43.41 62.36L45.89 67.13H40.13L37.41 62.1C37.06 61.45 36.76 61.02 36.49 60.83C36.12 60.58 35.7 60.45 35.24 60.45H34.79V67.13H29.67V67.12ZM47.65 95.85H38.13L36.76 100.33H28.18L38.41 73.14H47.61L57.8 100.33H49L47.65 95.85ZM45.87 89.96L42.9 80.18L39.92 89.96H45.87ZM59.78 73.14H73.76C76.81 73.14 79.09 73.86 80.6 75.31C82.11 76.76 82.87 78.83 82.87 81.5C82.87 84.25 82.04 86.4 80.39 87.95C78.74 89.5 76.21 90.27 72.82 90.27H68.21V100.33H59.78V73.14ZM68.21 84.76H70.28C71.91 84.76 73.06 84.48 73.72 83.91C74.38 83.35 74.71 82.62 74.71 81.75C74.71 80.9 74.42 80.17 73.85 79.58C73.28 78.99 72.2 78.69 70.62 78.69H68.21V84.76ZM86.27 73.14H94.7V100.33H86.27V73.14ZM34.79 57.32H36.94C37.17 57.32 37.62 57.24 38.29 57.09C38.63 57.02 38.91 56.85 39.12 56.57C39.34 56.29 39.44 55.97 39.44 55.61C39.44 55.08 39.27 54.66 38.93 54.38C38.59 54.09 37.96 53.95 37.03 53.95H34.79V57.32ZM46.87 50.62H60.52V54.14H51.99V56.77H59.9V60.13H51.99V63.38H60.77V67.11H46.87V50.62ZM61.98 61.66L66.82 61.36C66.92 62.15 67.14 62.74 67.46 63.15C67.99 63.81 68.74 64.15 69.71 64.15C70.43 64.15 71 63.98 71.39 63.64C71.78 63.3 71.98 62.9 71.98 62.45C71.98 62.02 71.79 61.64 71.42 61.3C71.05 60.96 70.18 60.65 68.81 60.34C66.58 59.84 64.99 59.17 64.03 58.34C63.07 57.51 62.59 56.45 62.59 55.16C62.59 54.31 62.84 53.51 63.33 52.76C63.82 52.01 64.56 51.41 65.55 50.98C66.54 50.55 67.89 50.34 69.61 50.34C71.72 50.34 73.32 50.73 74.43 51.52C75.53 52.31 76.19 53.55 76.4 55.27L71.61 55.56C71.48 54.81 71.21 54.26 70.81 53.93C70.4 53.59 69.83 53.42 69.12 53.42C68.53 53.42 68.08 53.55 67.78 53.8C67.48 54.05 67.33 54.36 67.33 54.72C67.33 54.98 67.46 55.21 67.7 55.43C67.94 55.64 68.5 55.85 69.4 56.04C71.63 56.52 73.23 57.01 74.19 57.5C75.15 57.99 75.86 58.6 76.29 59.33C76.73 60.05 76.95 60.87 76.95 61.77C76.95 62.83 76.66 63.8 76.07 64.69C75.49 65.58 74.67 66.26 73.62 66.72C72.57 67.18 71.25 67.41 69.65 67.41C66.85 67.41 64.9 66.87 63.82 65.79C62.74 64.69 62.13 63.32 61.98 61.66ZM77.69 50.62H93.2V54.7H88V67.12H82.9V54.7H77.69V50.62ZM60.53 11.46C58.7 11.32 56.85 11.34 55.02 11.52C49.39 12.06 43.92 14.11 39.4 17.62C34.17 21.67 30.2 27.73 28.67 35.76L28.19 38.27L25.69 38.71C23.24 39.14 21.05 39.73 19.13 40.48C17.27 41.2 15.61 42.09 14.16 43.14C13 43.98 12 44.92 11.15 45.94C8.51999 49.09 7.29999 53.04 7.32999 57.04C7.35999 61.1 8.68 65.2 11.12 68.57C12.03 69.82 13.08 70.97 14.28 71.97C15.5 72.98 16.87 73.82 18.41 74.45C19.28 74.81 20.21 75.11 21.18 75.35V82.84C19.18 82.48 17.34 81.94 15.62 81.23C13.35 80.29 11.34 79.08 9.56999 77.6C7.88999 76.2 6.41999 74.61 5.16999 72.88C1.83999 68.28 0.039995 62.66 -5.04893e-06 57.06C-0.040005 51.4 1.71999 45.77 5.51999 41.21C6.74999 39.73 8.19999 38.37 9.85999 37.17C11.79 35.77 14 34.59 16.5 33.62C18.22 32.95 20.06 32.39 22 31.94C24.2 23.2 28.89 16.47 34.92 11.8C40.56 7.42998 47.35 4.87998 54.34 4.20998C58.01 3.85998 61.73 4.01998 65.37 4.69998C65.29 5.02998 65.22 5.35998 65.18 5.69998L65.17 5.75998C65.1 6.32998 65.07 6.89998 65.1 7.47998C64.33 7.77998 63.61 8.18998 62.96 8.68998L62.93 8.70998C61.96 9.43998 61.14 10.38 60.53 11.46ZM113.44 30.66C114 31.17 114.54 31.7 115.07 32.27C116.14 33.42 117.15 34.72 118.1 36.17C121.3 41.09 122.94 47.66 122.87 54.09C122.8 60.4 121.1 66.68 117.62 71.3C115.35 74.31 112.44 76.77 108.95 78.72C106.56 80.06 103.87 81.17 100.94 82.07V74.32C102.52 73.73 103.99 73.07 105.34 72.32C107.97 70.85 110.12 69.06 111.73 66.91C114.23 63.58 115.46 58.87 115.51 54.04C115.57 48.97 114.33 43.88 111.92 40.18C111.23 39.11 110.47 38.15 109.67 37.29C109.36 36.96 109.05 36.65 108.73 36.35C108.78 35.85 108.8 35.34 108.77 34.83C109.54 34.53 110.26 34.12 110.91 33.62L110.94 33.6C111.97 32.81 112.83 31.81 113.44 30.66ZM88.08 12.8C92.69 13.43 95.91 17.68 95.28 22.29C94.65 26.9 90.4 30.13 85.79 29.5C81.18 28.87 77.95 24.62 78.59 20.01C79.23 15.4 83.47 12.17 88.08 12.8Z" fill="#38D7DF"/>
</g>
<defs>
<clipPath id="clip0_201_3">
<rect width="122.88" height="100.33" fill="white"/>
</clipPath>
</defs>
</svg>
