<svg width="123" height="102" viewBox="0 0 123 102" fill="none" xmlns="http://www.w3.org/2000/svg">
<g clip-path="url(#clip0_201_9)">
<path d="M44.97 12.84H27.77L0 49.37L27.77 85.9H44.97L17.2 49.37L44.97 12.84ZM77.91 12.84H95.11L122.88 49.37L95.11 85.9H77.91L105.68 49.37L77.91 12.84ZM70.17 0.0400061L76.13 1.43001C77.07 1.65001 77.65 2.59001 77.44 3.53001L54.94 100.22C54.72 101.15 53.78 101.74 52.84 101.53L46.89 100.14C45.95 99.92 45.37 98.98 45.58 98.04L68.08 1.35001C68.3 0.420006 69.24 -0.169994 70.17 0.0400061Z" fill="#CCC61C"/>
</g>
<defs>
<clipPath id="clip0_201_9">
<rect width="122.88" height="101.57" fill="white"/>
</clipPath>
</defs>
</svg>
