<svg width="123" height="102" viewBox="0 0 123 102" fill="none" xmlns="http://www.w3.org/2000/svg">
<g clip-path="url(#clip0_201_12)">
<path fill-rule="evenodd" clip-rule="evenodd" d="M3.34 0H119.54C121.38 0 122.88 1.5 122.88 3.34V80.32C122.88 82.16 121.38 83.66 119.54 83.66H3.34C1.5 83.66 0 82.16 0 80.32V3.34C0 1.5 1.5 0 3.34 0ZM46.29 88.27H76.59C76.67 93.51 78.83 98.21 84.68 101.9H38.2C42.88 98.51 46.31 94.39 46.29 88.27ZM61.44 72.41C63.81 72.41 65.73 74.33 65.73 76.7C65.73 79.07 63.81 80.99 61.44 80.99C59.07 80.99 57.15 79.07 57.15 76.7C57.15 74.33 59.07 72.41 61.44 72.41ZM10.05 6.29H112.84C114.47 6.29 115.79 7.62 115.79 9.24V66.76C115.79 68.38 114.46 69.71 112.84 69.71H10.05C8.43 69.71 7.1 68.38 7.1 66.76V9.24C7.09 7.62 8.42 6.29 10.05 6.29Z" fill="#1BB44C"/>
</g>
<defs>
<clipPath id="clip0_201_12">
<rect width="122.88" height="101.91" fill="white"/>
</clipPath>
</defs>
</svg>
